<?xml version="1.0" encoding="UTF-8"?><svg id="Layer_2" xmlns="http://www.w3.org/2000/svg" viewBox="0 0 1279.2904 722.389"><defs><style>.cls-1,.cls-2,.cls-3,.cls-4,.cls-5,.cls-6,.cls-7,.cls-8,.cls-9,.cls-10,.cls-11,.cls-12,.cls-13,.cls-14,.cls-15,.cls-16,.cls-17{stroke-miterlimit:10;}.cls-1,.cls-3,.cls-4,.cls-18,.cls-5,.cls-6,.cls-7,.cls-8,.cls-19,.cls-11,.cls-12,.cls-13,.cls-14,.cls-20,.cls-15,.cls-16,.cls-17{stroke:#231f20;}.cls-1,.cls-4,.cls-11,.cls-20,.cls-21{fill:#eec1a6;}.cls-1,.cls-18,.cls-7,.cls-11,.cls-12,.cls-14,.cls-20,.cls-16,.cls-17{stroke-linecap:round;}.cls-1,.cls-7{stroke-width:6.1691px;}.cls-2,.cls-18,.cls-5,.cls-8,.cls-19,.cls-12,.cls-14,.cls-15,.cls-17{fill:none;}.cls-2,.cls-9,.cls-10{stroke:#0f086d;}.cls-2,.cls-9,.cls-10,.cls-15{stroke-width:7.7114px;}.cls-3,.cls-4,.cls-5,.cls-13,.cls-17{stroke-width:8.083px;}.cls-3,.cls-22{fill:#9e4c0e;}.cls-18,.cls-6,.cls-8,.cls-14,.cls-20{stroke-width:6.7224px;}.cls-18,.cls-19,.cls-20{stroke-linejoin:round;}.cls-23{fill:#dba489;}.cls-6,.cls-24{fill:#dba58a;}.cls-7{fill:#191f2b;}.cls-25{fill:#c86;}.cls-9{fill:#2e17a0;}.cls-19{stroke-width:10.0188px;}.cls-10{fill:#340ec1;}.cls-26{fill:#1f1189;}.cls-27,.cls-13,.cls-16{fill:#e8bc31;}.cls-11{stroke-width:12.9328px;}.cls-12,.cls-16{stroke-width:8.0831px;}.cls-28{fill:#592a0a;}.cls-29{fill:#21201c;}.cls-30{fill:#4f2459;}.cls-31{fill:#3e1b47;}.cls-32{fill:#2509ad;}.cls-33{fill:#d6a825;}</style></defs><g id="Layer_23"><g id="Layer_19"><g><path class="cls-27" d="M513.8959,573.0963c-89.8766,14.2773-178.7576-56.9646-189.0054-65.487l28.6675-34.4708,28.557-34.5175c18.3024,15.06,80.1404,55.6291,122.5066,44.975,7.1042-1.7888,28.7242-7.2285,46.3905-50.2992l82.9279,34.0172c-28.8706,70.3847-74.5596,95.0206-107.804,103.295-4.0745,1.0128-8.163,1.8396-12.2401,2.4873Z"/><path class="cls-33" d="M527.7717,518.1944c-4.0745,1.0128-8.163,1.8396-12.2401,2.4873-64.3041,10.215-128.0833-23.3419-162.9334-46.389l-27.7076,33.3167c10.2478,8.5224,99.1289,79.7643,189.0054,65.487,4.0771-.6477,8.1656-1.4744,12.2401-2.4873,33.2443-8.2745,78.9333-32.9104,107.804-103.295l-21.863-8.9683c-26.7564,37.8794-59.1039,53.5762-84.3053,59.8488Z"/><path class="cls-5" d="M513.8959,573.0963c-89.8766,14.2773-178.7576-56.9646-189.0054-65.487l28.6675-34.4708,28.557-34.5175c18.3024,15.06,80.1404,55.6291,122.5066,44.975,7.1042-1.7888,28.7242-7.2285,46.3905-50.2992l82.9279,34.0172c-28.8706,70.3847-74.5596,95.0206-107.804,103.295-4.0745,1.0128-8.163,1.8396-12.2401,2.4873Z"/></g><path class="cls-13" d="M206.2214,423.3203h140.5451c29.5016,0,53.4531,23.9515,53.4531,53.4531v119.0789H109.8807v-76.1912c0-53.1719,43.1688-96.3407,96.3407-96.3407Z"/><path class="cls-33" d="M223.7402,423.3202h-17.5188c-53.2074,0-96.3406,43.1332-96.3406,96.3408v76.1912h113.8594v-172.532Z"/><path class="cls-5" d="M206.2214,423.3203h140.5451c29.5016,0,53.4531,23.9515,53.4531,53.4531v119.0789H109.8807v-76.1912c0-53.1719,43.1688-96.3407,96.3407-96.3407Z"/><g><rect class="cls-4" x="231.4349" y="342.7152" width="98.3974" height="98.3974"/><rect class="cls-23" x="231.4349" y="342.7152" width="69.0093" height="98.3974"/><rect class="cls-5" x="231.4349" y="342.7152" width="98.3974" height="98.3974"/><g id="cara"><path class="cls-4" d="M331.7823,38.3739h-66.3126c-45.0426,0-81.5569,36.5143-81.5569,81.557v147.1074c0,63.3543,51.3589,101.3745,114.7132,101.3745s114.7133-38.0202,114.7133-101.3745V119.9309c0-45.0426-36.5143-81.557-81.557-81.557Z"/><path class="cls-23" d="M352.7816,332.9731c-63.3544,0-114.7133-38.0201-114.7133-101.3744V84.4913c0-16.5981,4.971-32.0292,13.4873-44.9109-38.4103,6.6065-67.6428,40.0541-67.6428,80.3505v147.1074c0,63.3543,51.3589,101.3745,114.7133,101.3745,39.445,0,74.2326-14.7445,94.8773-41.1592-12.6582,3.7513-26.3767,5.7195-40.7218,5.7195Z"/><path class="cls-5" d="M331.7823,38.3739h-66.3126c-45.0426,0-81.5569,36.5143-81.5569,81.557v147.1074c0,63.3543,51.3589,101.3745,114.7132,101.3745s114.7133-38.0202,114.7133-101.3745V119.9309c0-45.0426-36.5143-81.557-81.557-81.557Z"/><path class="cls-4" d="M180.103,225.6693s-10.6553-16.4867-23.7073-12.0216c-13.052,4.4651-13.0443,71.4322,23.7073,39.8327v-27.8111Z"/><path class="cls-17" d="M387.0168,297.0552c0,17.1557-13.9074,31.0631-31.0631,31.0631s-31.0631-13.9074-31.0631-31.0631"/><path class="cls-25" d="M358.5619,270.7279c16.911,0,30.6203-5.3182,30.6203-11.8786h-61.2408c0,6.5604,13.7093,11.8786,30.6206,11.8786Z"/><rect class="cls-29" x="289.8433" y="201.1426" width="17.7925" height="23.4762" rx="8.8962" ry="8.8962"/><rect class="cls-29" x="400.2196" y="201.1426" width="17.7925" height="23.4762" rx="8.8962" ry="8.8962"/><path class="cls-11" d="M394.7587,168.4793s19.5102-4.7713,37.1613,14.4374"/><path class="cls-11" d="M280.6337,187.9755s11.9806-16.1207,37.8275-12.589"/><path class="cls-14" d="M327.9413,258.8493s-.6172,11.8786,30.6206,11.8786c20.0494,0,30.6203-4.4557,30.6203-11.8786s-2.1599-18.2799-16.5517-18.2799"/></g><g><path class="cls-22" d="M207.5219,389.514c-15.6498,9.2885-37.5314,6.3094-50.1284-6.8249-9.9397,11.052-26.877,15.1654-40.7786,9.9034-13.9017-5.262-23.8702-19.5595-24.0005-34.4231-8.5565,5.1357-19.9173,5.198-28.5296,.1565-8.6123-5.0416-14.1197-14.9783-13.8304-24.9536,.3705-12.7759,9.3641-24.2432,9.1081-37.0219-12.0097,2.6359-25.4043-4.6706-29.6899-16.1951-3.493-9.3932-1.155-20.2172,4.1184-28.7393,5.2733-8.5221,13.1719-15.0801,21.3358-20.8925-14.1941-6.444-22.4905-23.7179-18.6471-38.8251,3.8434-15.1072,19.3861-26.3162,34.9341-25.1936-13.2283-12.1293-17.9799-33.3238-9.3854-49.0795,8.5944-15.7557,30.7823-23.0335,46.1824-13.8169-7.1749-12.3099-2.9868-29.2018,7.552-38.7908,10.5387-9.5889,25.9598-12.5001,40.0291-10.2491h57.4185c14.6116,0,26.996,5.9672,29.2481,20.4042,2.2521,14.437-6.6666,28.8269-18.7107,37.0995,20.4894,3.8903,37.5623,21.7059,40.5773,42.3423s-8.2474,42.5917-26.7674,52.1813c8.6204,5.1939,16.2534,12.0204,22.3737,20.0099,7.8535,10.252,13.2961,23.4525,10.3284,36.0212-4.175,17.6817-22.5819,27.5062-39.0849,35.1037,9.5615,10.8013,18.8803,23.2731,19.3998,37.689,.4307,11.9524-5.4465,23.4412-13.5462,32.2413-8.0997,8.8001-19.2213,15.7487-29.5063,21.8532Z"/><path class="cls-28" d="M201.9413,333.4391c-13.5932-8.7901-20.5839-26.6712-16.5571-42.35-7.1501,4.0648-15.1396,7.0174-23.3643,7.032-8.2247,.0144-16.6995-3.2275-21.7626-9.7091-4.8684-6.2325-6.084-14.5969-5.809-22.5007,.4889-14.0534,5.2391-27.9307,13.4645-39.3362-8.1857-3.237-16.9965-7.004-21.2773-14.6954-6.2876-11.2973-.0031-25.2801,6.8497-36.2436,8.526-13.6405,18.4668-27.0509,32.3926-35.1022-18.299-12.5204-28.7843-35.593-26.1819-57.6123,1.2334-10.437,5.4079-20.3992,11.6364-28.8546-12.7891-1.0334-26.1334,2.165-35.5694,10.7506-10.5387,9.5889-14.7268,26.4808-7.5519,38.7907-15.4001-9.2164-37.5881-1.9387-46.1825,13.8169-8.5945,15.7558-3.8427,36.9502,9.3855,49.0795-15.5479-1.1226-31.0906,10.0864-34.934,25.1936-3.8434,15.1072,4.453,32.3812,18.6472,38.8251-8.1639,5.8124-16.0624,12.3704-21.3358,20.8925s-7.6114,19.3461-4.1184,28.7393c4.2855,11.5245,17.6802,18.8309,29.6899,16.1952,.256,12.7786-8.7375,24.246-9.1081,37.0219-.2894,9.9752,5.2181,19.912,13.8305,24.9536,8.6123,5.0416,19.973,4.9792,28.5295-.1565,.1304,14.8636,10.0988,29.1611,24.0005,34.4231,13.9017,5.262,30.8389,1.1487,40.7787-9.9033,12.5969,13.1343,34.4785,16.1133,50.1284,6.8248,10.2849-6.1043,21.4066-13.0531,29.5063-21.8532,8.0162-8.7092,13.8339-20.0539,13.5359-31.8731-1.199-1.4425-2.2831-2.9812-3.2082-4.6237-12.6466,10.1047-31.8214,11.0654-45.4146,2.2752Z"/><path class="cls-19" d="M207.5219,389.514c-15.6498,9.2885-37.5314,6.3094-50.1284-6.8249-9.9397,11.052-26.877,15.1654-40.7786,9.9034-13.9017-5.262-23.8702-19.5595-24.0005-34.4231-8.5565,5.1357-19.9173,5.198-28.5296,.1565-8.6123-5.0416-14.1197-14.9783-13.8304-24.9536,.3705-12.7759,9.3641-24.2432,9.1081-37.0219-12.0097,2.6359-25.4043-4.6706-29.6899-16.1951-3.493-9.3932-1.155-20.2172,4.1184-28.7393,5.2733-8.5221,13.1719-15.0801,21.3358-20.8925-14.1941-6.444-22.4905-23.7179-18.6471-38.8251,3.8434-15.1072,19.3861-26.3162,34.9341-25.1936-13.2283-12.1293-17.9799-33.3238-9.3854-49.0795,8.5944-15.7557,30.7823-23.0335,46.1824-13.8169-7.1749-12.3099-2.9868-29.2018,7.552-38.7908,10.5387-9.5889,25.9598-12.5001,40.0291-10.2491h57.4185c14.6116,0,26.996,5.9672,29.2481,20.4042,2.2521,14.437-6.6666,28.8269-18.7107,37.0995,20.4894,3.8903,37.5623,21.7059,40.5773,42.3423s-8.2474,42.5917-26.7674,52.1813c8.6204,5.1939,16.2534,12.0204,22.3737,20.0099,7.8535,10.252,13.2961,23.4525,10.3284,36.0212-4.175,17.6817-22.5819,27.5062-39.0849,35.1037,9.5615,10.8013,18.8803,23.2731,19.3998,37.689,.4307,11.9524-5.4465,23.4412-13.5462,32.2413-8.0997,8.8001-19.2213,15.7487-29.5063,21.8532Z"/></g><g><path class="cls-3" d="M333.3199,119.2622c-11.0971,2.8066-21.8721,8.9256-27.6413,18.8119-3.2043,5.4911-4.7792,11.9517-8.8482,16.8368-5.2864,6.3468-14.6372,8.9509-22.4432,6.2504-7.8061-2.7006-13.5485-10.5263-13.7827-18.7831,.554,8.072-1.3295,16.6361-5.9543,23.275-4.6249,6.6389-12.9558,11.0206-20.8966,9.4689-5.7871-1.1309-10.7675-5.2815-13.4838-10.5152-2.7162-5.2337-3.2845-11.4311-2.1942-17.2259V66.9473c0-41.9372,29.0357-62.9058,79.3603-62.9058h95.1434c36.3456,0,36.4702,25.1623,36.4702,35.6466v55.2287c-1.2506,5.8163-13.1526,10.3991-18.5313,12.9413-5.3788,2.5422-11.3895,3.3522-17.2977,4.05l-59.9005,7.3541Z"/><path class="cls-28" d="M289.2928,106.5742c-3.7449,5.7593-11.8426,7.6938-18.3338,5.4448s-11.3549-7.9472-13.9972-14.2883c-2.6424-6.3413-3.3242-13.316-3.5831-20.181-.3962-10.5081,.1301-21.047,1.4856-31.4749,.8782-6.7547,2.117-13.512,4.5761-19.8642,2.9858-7.7131,7.8203-14.6725,13.8972-20.2797-35.3678,5.9888-55.2622,26.3174-55.2622,61.0166v80.4336c-1.0903,5.7949-.522,11.9923,2.1942,17.226,2.7164,5.2336,7.6968,9.3842,13.4839,10.5152,7.9408,1.5518,16.2717-2.83,20.8966-9.4689,4.6248-6.6389,6.5084-15.203,5.9543-23.275,.2341,8.2567,5.9766,16.0825,13.7827,18.7831,7.8061,2.7005,17.1568,.0964,22.4433-6.2505,4.0689-4.8851,5.6437-11.3456,8.8481-16.8367,.108-.185,.2463-.3466,.3578-.529-1.9179-.8864-3.7748-1.9053-5.4906-3.164-8.5319-6.2592-13.568-17.4817-11.2529-27.8069Z"/><path class="cls-5" d="M333.3199,119.2622c-11.0971,2.8066-21.8721,8.9256-27.6413,18.8119-3.2043,5.4911-4.7792,11.9517-8.8482,16.8368-5.2864,6.3468-14.6372,8.9509-22.4432,6.2504-7.8061-2.7006-13.5485-10.5263-13.7827-18.7831,.554,8.072-1.3295,16.6361-5.9543,23.275-4.6249,6.6389-12.9558,11.0206-20.8966,9.4689-5.7871-1.1309-10.7675-5.2815-13.4838-10.5152-2.7162-5.2337-3.2845-11.4311-2.1942-17.2259V66.9473c0-41.9372,29.0357-62.9058,79.3603-62.9058h95.1434c36.3456,0,36.4702,25.1623,36.4702,35.6466v55.2287c-1.2506,5.8163-13.1526,10.3991-18.5313,12.9413-5.3788,2.5422-11.3895,3.3522-17.2977,4.05l-59.9005,7.3541Z"/></g><path class="cls-3" d="M366.0909,342.749c-17.2623,.4534-34.7581,6.3779-34.7581,20.5488s4.3527,24.1802,19.0538,19.4884c0,0-.0036,15.0139,19.5476,15.0139s18.6128-15.3267,18.6128-15.3267c0,0,11.2642,13.773,20.0186-4.0663,8.7544-17.8393-6.7519-36.5965-42.4748-35.6581Z"/></g><g><path class="cls-20" d="M559.5555,437.9715l-29.8817-42.3549c-2.7676-3.9228-5.6014-7.995-6.5591-12.6993-.9577-4.7043,.4699-10.2472,4.6098-12.678,7.4681-4.385,15.9539,3.6204,20.9124,10.7207l19.2056,27.5011c4.5523-25.3058,12.1861-50.0557,22.6789-73.5293,1.6179-3.6194,3.429-7.3654,6.6307-9.7034,3.2017-2.338,8.2149-2.6854,10.8205,.3026,2.6353,3.0221,1.6876,7.6371,.5893,11.4935l-13.5808,47.6852c8.4194-17.8367,18.5311-34.8741,30.1551-50.8089,1.6668-2.2849,3.5666-4.6897,6.2959-5.4316,4.5916-1.2482,9.1624,3.139,9.952,7.8313s-1.055,9.3838-2.8632,13.7851c-6.4077,15.5971-14.3922,27.3577-20.7999,42.9549,13.8586-10.0093,20.4622-26.9641,36.5688-32.6932,2.7883-.9918,6.299-1.2786,8.3358,.8684,2.1729,2.2903,1.4818,5.98,.5315,8.9907-5.2267,16.5585-14.4545,26.1838-26.1327,39.0338,6.1832-1.3588,9.4214-3.1553,15.272-5.5738,10.2271-4.2276,13.0985-6.3992,16.7477-1.226,3.4669,4.9149-.5814,11.5356-4.6986,15.9202-14.4234,15.3603-31.5677,27.8614-48.6006,40.2652l-56.1894-20.6543Z"/><path class="cls-23" d="M589.5642,437.7906c-4.2011-.5916-7.0998-1.4115-11.398-3.248-1.8699-.7989-3.6993-1.6896-5.5041-2.6254-.4822-.2501-.9624-.5037-1.4415-.7595-.0967-.0517-.8221-.4442-.982-.5295-.4786-.2622-.9548-.528-1.4317-.7929-.1521-.2729-.2851-.5471-.4821-.8164-12.0961-16.5271-23.7127-33.3965-35.4128-50.2045-4.9419-7.0994-15.3276,1.4457-10.4008,8.5232,11.7,16.808,23.3166,33.6774,35.4128,50.2045,2.4428,3.3376,6.0798,3.1122,8.6675,1.2265,2.7213,1.4818,5.4722,2.9102,8.321,4.1275,4.3564,1.8615,8.9625,3.1437,13.6545,3.8044,2.3215,.327,4.7961-1.589,4.9535-3.9564,.1652-2.4821-1.4704-4.6035-3.9562-4.9535Z"/><path class="cls-23" d="M594.0584,328.5458c-11.8313,24.1508-20.2002,49.8592-25.0268,76.3117-.9132,5.0047,6.9718,6.8919,8.6317,2.1255,.1878-.5393,.3757-1.0786,.5634-1.6179,.2593-.7444,.3132-1.4423,.2323-2.0885,4.7641-24.7787,12.8504-48.8142,23.9528-71.4771,2.5429-5.1908-5.8322-8.4001-8.3534-3.2536Z"/><path class="cls-23" d="M629.8594,336.5342c-11.7602,15.2495-23.2536,30.703-34.4749,46.3533-3.3646,4.6926,3.8862,9.9621,7.2538,5.2651,11.2212-15.6503,22.7145-31.1038,34.4749-46.3533,3.53-4.5773-3.7311-9.833-7.2538-5.2651Z"/><path class="cls-23" d="M649.4229,364.8949c-11.1148,8.8738-21.8838,18.17-32.2855,27.8699-1.7681,1.6488-2.2302,4.3515-.6258,6.308,1.461,1.782,4.5297,2.2843,6.3079,.626,10.4016-9.6999,21.1708-18.9962,32.2856-27.87,4.5076-3.5987-1.1634-10.5415-5.6822-6.9338Z"/><path class="cls-23" d="M657.4301,412.4217c-16.0896,15.2918-34.4201,28.8192-54.1721,38.9527,1.0836,1.9088,6.1864,2.9191,9.4254,4.6629,20.4209-10.4767,33.7904-20.8682,50.4288-36.6818,4.1547-3.9487-1.4865-10.9215-5.6821-6.9339Z"/><path class="cls-23" d="M618.9992,429.3545c-.7669-.6501-1.5265-1.3084-2.2756-1.979-.4214-.3772-.8394-.7579-1.2546-1.1419-.03-.0278-.1666-.1554-.2721-.2535-.1039-.099-.2366-.2247-.2659-.2527-1.4967-1.435-2.9512-2.9139-4.3606-4.4348-2.8197-3.0426-5.4514-6.2532-7.8979-9.6028-1.3852-1.8968-4.5739-2.1784-6.3079-.626-1.891,1.693-2.1077,4.2794-.6259,6.3081,5.1978,7.1167,11.2753,13.5392,17.9954,19.2365,1.7946,1.5214,4.9912,.9202,6.2595-.9944,1.4245-2.1502,.9199-4.6366-.9944-6.2595Z"/><path class="cls-18" d="M568.4039,415.0124c5.3941-2.6005,12.1964-.9847,16.6899,2.9736,4.4934,3.9583,6.9054,9.8601,7.7665,15.7861"/><path class="cls-18" d="M587.0226,390.8384c9.7266-.5502,19.4836,3.1959,26.8672,9.5514s12.4534,15.1766,15.0028,24.5793"/><path class="cls-18" d="M559.5555,437.9715l-29.8817-42.3549c-2.7676-3.9228-5.6014-7.995-6.5591-12.6993-.9577-4.7043,.4699-10.2472,4.6098-12.678,7.4681-4.385,15.9539,3.6204,20.9124,10.7207l19.2056,27.5011c4.5523-25.3058,12.1861-50.0557,22.6789-73.5293,1.6179-3.6194,3.429-7.3654,6.6307-9.7034,3.2017-2.338,8.2149-2.6854,10.8205,.3026,2.6353,3.0221,1.6876,7.6371,.5893,11.4935l-13.5808,47.6852c8.4194-17.8367,18.5311-34.8741,30.1551-50.8089,1.6668-2.2849,3.5666-4.6897,6.2959-5.4316,4.5916-1.2482,9.1624,3.139,9.952,7.8313s-1.055,9.3838-2.8632,13.7851c-6.4077,15.5971-14.3922,27.3577-20.7999,42.9549,13.8586-10.0093,20.4622-26.9641,36.5688-32.6932,2.7883-.9918,6.299-1.2786,8.3358,.8684,2.1729,2.2903,1.4818,5.98,.5315,8.9907-5.2267,16.5585-14.4545,26.1838-26.1327,39.0338,6.1832-1.3588,9.4214-3.1553,15.272-5.5738,10.2271-4.2276,13.0985-6.3992,16.7477-1.226,3.4669,4.9149-.5814,11.5356-4.6986,15.9202-14.4234,15.3603-31.5677,27.8614-48.6006,40.2652l-56.1894-20.6543Z"/></g><g><path class="cls-21" d="M194.8445,698.6639c34.7174,1.9665,69.5817,1.3338,104.2049-1.8911,.3921-.0365,.8177-.0884,1.0973-.3656,.4078-.4043,.3158-1.0742,.1945-1.6355l-2.2854-10.5731c-1.0496-4.8557-2.1151-9.7595-4.2249-14.2571-4.4062-9.3929-13.1091-16.2689-22.671-20.295-9.5619-4.0262-19.9982-5.4762-30.3371-6.3409-13.9955-1.1705-28.0749-1.3369-42.0942-.4975l-3.8842,55.8557Z"/><path class="cls-23" d="M195.4776,667.3487s62.2205-.524,67.7288,30.6896c0,0-57.7715,6.7593-68.3619,.6255l.6331-31.3152Z"/><path class="cls-14" d="M229.688,656.5974c11.946-1.7064,24.5176,1.479,34.2097,8.668,9.692,7.1891,16.3882,18.2956,18.2215,30.2227"/><path class="cls-14" d="M194.8445,698.6639c34.7174,1.9665,69.5817,1.3338,104.2049-1.8911,.3921-.0365,.8177-.0884,1.0973-.3656,.4078-.4043,.3158-1.0742,.1945-1.6355l-2.2854-10.5731c-1.0496-4.8557-2.1151-9.7595-4.2249-14.2571-4.4062-9.3929-13.1091-16.2689-22.671-20.295-9.5619-4.0262-19.9982-5.4762-30.3371-6.3409-13.9955-1.1705-28.0749-1.3369-42.0942-.4975"/></g><g><path class="cls-16" d="M198.4476,524.5232c-.2713,.1641-27.5101,16.7054-55.0794,38.9779-15.9623,12.8958-27.103,23.7567-34.7278,32.3846-7.3681,8.3374-3.3302,21.4999,7.4788,24.1391,15.7975,3.8572,40.8786,7.6038,80.0087,8.6174l-2.3218,89.6019c-71.6634-1.8557-169.0282-12.2391-187.1134-80.6715-11.0443-41.792,12.3453-86.4376,71.5047-136.4861,35.4766-30.0125,71.3358-59.5001,72.8895-60.4367"/><path class="cls-33" d="M56.338,595.8522c2.9981-39.6251,100.4376-121.9821,118.6736-110.9991l-23.9246-44.2033c-1.5537,.9366-37.4129,30.4243-72.8895,60.4367C19.0381,551.1351-4.3515,595.7807,6.6928,637.5727c18.0852,68.4323,115.45,78.8158,187.1134,80.6715l1.1357-43.8314c-104.5205-6.4618-142.139-31.8372-138.604-78.5606Z"/><path class="cls-12" d="M198.4476,524.5232c-.2713,.1641-27.5101,16.7054-55.0794,38.9779-15.9623,12.8958-27.103,23.7567-34.7278,32.3846-7.3681,8.3374-3.3302,21.4999,7.4788,24.1391,15.7975,3.8572,40.8786,7.6038,80.0087,8.6174l-2.3218,89.6019c-71.6634-1.8557-169.0282-12.2391-187.1134-80.6715-11.0443-41.792,12.3453-86.4376,71.5047-136.4861,35.4766-30.0125,71.3358-59.5001,72.8895-60.4367"/></g></g></g><g id="Layer_20"><g><path class="cls-31" d="M701.8771,464.0454c-7.9125,16.3446-41.6212,100.1881-89.7353,136.7222h104.851l-15.1157-136.7222Z"/><path class="cls-18" d="M701.8771,464.0454s-49.5336,106.1962-89.7353,136.7222h104.851l-15.1157-136.7222Z"/></g><g><path class="cls-9" d="M694.9756,195.5991v129.1751c0,67.9819-4.6673,89.2068,14.6192,111.4425,19.2865,22.2357,20.1313,82.8784,0,95.007,0,0,109.5945,61.6535,114.9761-46.4928,5.3816-108.1463-52.8475-112.5701-52.8475-112.5701l-12.0227-176.5616h-64.7251Z"/><path class="cls-26" d="M725.2883,395.1028V195.599h-30.3128v129.175c0,67.982-4.6672,89.2069,14.6193,111.4426,19.2864,22.2357,20.1312,82.8784,0,95.007,0,0,7.3332,4.1201,18.2866,8.3617,56.7406-56.9876-2.5931-144.4826-2.5931-144.4826Z"/><path class="cls-2" d="M694.9756,195.5991v129.1751c0,67.9819-4.6673,89.2068,14.6192,111.4425,19.2865,22.2357,20.1313,82.8784,0,95.007,0,0,109.5945,61.6535,114.9761-46.4928,5.3816-108.1463-52.8475-112.5701-52.8475-112.5701l-12.0227-176.5616h-64.7251Z"/></g><g><path class="cls-30" d="M794.3178,407.0151h82.6677c60.359,0,109.3628,49.0038,109.3628,109.3628v84.3896h-301.3933v-84.3896c0-60.359,49.0038-109.3628,109.3628-109.3628Z"/><path class="cls-31" d="M853.4086,407.0151h-59.0908c-60.3994,0-109.3628,48.9634-109.3628,109.3629v84.3895h59.0908v-84.3895c0-60.3995,48.9634-109.3629,109.3628-109.3629Z"/><path class="cls-15" d="M794.3178,407.0151h82.6677c60.359,0,109.3628,49.0038,109.3628,109.3628v84.3896h-301.3933v-84.3896c0-60.359,49.0038-109.3628,109.3628-109.3628Z"/></g><rect class="cls-6" x="794.2244" y="367.5922" width="74.9148" height="47.4489"/><g><path class="cls-21" d="M824.5709,385.0052h0c-63.4995,0-114.9761-51.4765-114.9761-114.976v-49.2756c0-58.6971,47.5834-106.2805,106.2805-106.2805h17.3913c58.6971,0,106.2805,47.5834,106.2805,106.2805v49.2756c0,63.4995-51.4766,114.976-114.9761,114.976Z"/><path class="cls-24" d="M859.022,340.4323c-63.4995,0-114.9761-51.4765-114.9761-114.976v-49.2756c0-14.2954,2.8411-27.9224,7.9591-40.3725-25.7534,19.3949-42.4101,50.2225-42.4101,84.9455v49.2755c0,63.4995,51.4766,114.9761,114.9761,114.9761,47.2089,0,87.7525-28.4633,105.4584-69.1556-19.5538,15.3817-44.1986,24.5826-71.0074,24.5826Z"/><path class="cls-8" d="M824.5709,385.0052h0c-63.4995,0-114.9761-51.4765-114.9761-114.976v-49.2756c0-58.6971,47.5834-106.2805,106.2805-106.2805h17.3913c58.6971,0,106.2805,47.5834,106.2805,106.2805v49.2756c0,63.4995-51.4766,114.976-114.9761,114.976Z"/><path class="cls-29" d="M736.4613,221.1123h-12.7809c-4.6874,0-8.4873,3.7999-8.4873,8.4873s3.7999,8.4873,8.4873,8.4873h12.7809c4.6874,0,8.4873-3.7999,8.4873-8.4873s-3.7999-8.4873-8.4873-8.4873Z"/><path class="cls-29" d="M836.8881,221.1123h-12.7809c-4.6874,0-8.4873,3.7999-8.4873,8.4873s3.7999,8.4873,8.4873,8.4873h12.7809c4.6874,0,8.4873-3.7999,8.4873-8.4873s-3.7999-8.4873-8.4873-8.4873Z"/><path class="cls-1" d="M757.687,281.5768c0-12.7152,10.3077-23.0228,23.0228-23.0228s23.0228,10.3077,23.0228,23.0228"/><path class="cls-7" d="M831.9961,308.8017c0,21.6657-19.6883,39.2293-43.9752,39.2293s-43.9752-17.5636-43.9752-39.2293h87.9503Z"/></g><g><path class="cls-10" d="M772.6615,102.376h101.6082c42.876,0,77.6859,34.8099,77.6859,77.6859v15.5372h-256.98v-15.5372c0-42.876,34.8099-77.6859,77.6859-77.6859Z"/><path class="cls-32" d="M759.7006,182.4906c0-38.5524,26.3759-70.9437,62.0667-80.1147h-49.1059c-42.9048,0-77.686,34.7812-77.686,77.686v15.5372h64.7251v-13.1084Z"/><path class="cls-2" d="M772.6615,102.376h101.6082c42.876,0,77.6859,34.8099,77.6859,77.6859v15.5372h-256.98v-15.5372c0-42.876,34.8099-77.6859,77.6859-77.6859Z"/></g><g><path class="cls-21" d="M1185.5228,518.4266c25.2257-17.1771,56.2234-24.0501,82.0245-40.35,1.8168-1.1478,3.7353-2.5122,4.3203-4.58,.8203-2.8993-1.502-5.9357-4.3218-6.9975-2.8198-1.0617-5.9516-.6698-8.9371-.2632l-22.369,3.0467c12.5725-9.3912,25.2268-18.8556,35.8324-30.4221,2.7369-2.9849,5.3905-7.6062,2.8015-10.7203-2.7893-3.355-8.1792-1.0012-11.7365,1.5249-12.026,8.5396-23.1592,15.3842-35.1852,23.9238,8.9136-15.282,20.7703-28.5911,32.0277-42.2388,1.8212-2.2079,3.6934-4.5654,4.1684-7.3878s-1.0203-6.191-3.8288-6.7421c-2.6357-.5172-5.0264,1.5012-6.9666,3.3586-14.5295,13.9093-29.7416,27.1057-45.5632,39.5256l25.1757-34.5955c2.0091-2.7608,3.7613-7.2138,.8701-9.0303-.8592-.5398-1.9243-.6299-2.9385-.5967-7.4379,.2428-13.3566,6.035-18.467,11.4446-17.093,18.094-33.9981,34.635-51.0911,52.729,.2587-6.0247-.9924-11.9093-1.4611-17.9214-.3213-4.1211-.8404-8.3247-2.6765-12.0281s-5.2299-6.8663-9.3294-7.3965-8.768,1.8434-9.05,5.9674l-2.8367,41.4739"/><path class="cls-23" d="M1140.5142,427.1199c.1457,5.8675-.2612,11.7394-1.0496,17.5534-.3574,2.6347-.7897,5.2602-1.2431,7.8799-.241,1.3923-.4909,2.783-.7447,4.1729-.148,.8104-.2977,1.6203-.4479,2.4301-.0594,.3204-.1189,.6409-.1785,.9613-2.2247,2.5688-1.1755,7.6459,3.1893,7.516,4.9104-.1462,5.3887-4.7381,6.0802-8.5246,.6345-3.4745,1.2432-6.9543,1.7576-10.4488,1.0511-7.1396,1.7792-14.3154,1.5999-21.5402-.1431-5.7577-9.1067-5.7796-8.9633,0Z"/><path class="cls-23" d="M1190.8051,509.8527c-14.2511-17.0359-28.3123-36.6672-49.0696-46.1989-2.1981-1.0095-4.8259-.6248-6.1317,1.6077-1.129,1.9305-.6022,5.1169,1.6078,6.1317,20.0311,9.1984,33.5029,28.3574,47.2555,44.7974,1.5541,1.8577,4.7336,1.6046,6.338,0,1.839-1.839,1.5579-4.4757,0-6.338Z"/><path class="cls-23" d="M1179.1444,477.1267c-2.8814-5.3548-7.1684-10.5991-13.3281-12.1352-1.1452-.2857-2.4256-.1498-3.4533,.4517-.9298,.5441-1.8163,1.6099-2.0596,2.6783-.2614,1.1472-.2047,2.435,.4517,3.4534,.6245,.9686,1.5325,1.7737,2.6783,2.0596,.3916,.0977,.7673,.24,1.1454,.376,.6126,.2994,1.1978,.6449,1.7569,1.0352,.9259,.7733,1.7628,1.6392,2.5267,2.5728,.9422,1.2823,1.7881,2.6305,2.5424,4.0321,1.1123,2.0671,4.1468,2.8875,6.1317,1.6078,2.099-1.3533,2.7976-3.9206,1.6077-6.1317Z"/><path class="cls-23" d="M1209.1329,476.13c-1.2962-6.7494-5.8749-12.8791-11.8767-16.1856-2.0532-1.1311-4.9817-.569-6.1317,1.6078-1.111,2.1027-.5851,4.9235,1.6078,6.1317,.7317,.4031,1.4147,.8779,2.089,1.3678,.9882,.8243,1.8911,1.7359,2.708,2.7299,.779,1.0843,1.4493,2.2349,2.0056,3.4486,.405,1.0679,.7388,2.1578,.9549,3.2824,.2021,1.0534,1.1621,2.1533,2.0595,2.6783,.9607,.5623,2.3765,.8004,3.4534,.4519,2.4605-.7963,3.6048-3.0412,3.1302-5.513Z"/><path class="cls-23" d="M1220.9432,412.3456c-1.8391-1.6883-4.5062-1.7114-6.338,0-8.3076,7.7616-16.4114,15.7382-24.3035,23.922-1.6286,1.689-1.8058,4.6804,0,6.338,1.7624,1.6177,4.5995,1.8027,6.338,0,7.8921-8.1838,15.9959-16.1604,24.3035-23.922,1.7171-1.6042,1.7422-4.7386,0-6.338Z"/><path class="cls-23" d="M1244.256,425.0592c-1.6449-1.5099-4.7491-1.9346-6.338,0-7.1668,8.7268-14.3337,17.4534-21.5005,26.1802-1.4856,1.8089-1.9026,4.5915,0,6.338,1.6449,1.5099,4.7491,1.9346,6.338,0,7.1668-8.7268,14.3337-17.4534,21.5005-26.1802,1.4856-1.8089,1.9026-4.5915,0-6.338Z"/><path class="cls-23" d="M1264.5918,443.3218c-1.1463-1.9596-4.1389-3.0028-6.1317-1.6078-5.8401,4.0881-11.6804,8.1763-17.5206,12.2644-5.3894,3.7723-11.1284,7.3119-14.8301,12.8999-1.3372,2.0186-.398,4.9585,1.6077,6.1317,2.1924,1.2823,4.7914,.4155,6.1317-1.6078,.622-.9388,1.2662-1.6926,2.3149-2.7056,.4786-.4621,.9745-.9053,1.4824-1.3347,.2551-.2155,.5132-.4274,.774-.636,.0715-.0573,.1163-.0934,.1513-.1219,.035-.0263,.0702-.0527,.1327-.1,2.5172-1.9094,5.1584-3.6657,7.7463-5.4772,5.5112-3.8578,11.0224-7.7157,16.5335-11.5733,1.9803-1.3863,2.9007-3.9214,1.6078-6.1317Z"/><path class="cls-23" d="M1262.1486,477.6694c-1.3176-2.0436-3.9629-2.8695-6.1317-1.6078-2.7739,1.6137-5.5611,3.2223-8.4969,4.5279-.0817,.0365-.1636,.0718-.2454,.1076l-.0279,.0115c-.4022,.155-.8017,.3161-1.2071,.4631-.7061,.2559-1.4202,.4898-2.1429,.6946-.7204,.2043-1.4491,.3808-2.1842,.5235-.2951,.0573-1.64,.4593-.3958,.0938-.391,.1149-.8816,.0934-1.287,.1234-2.3326,.1722-4.5956,1.9379-4.4816,4.4816,.1022,2.2802,1.9778,4.6664,4.4816,4.4816,7.5276-.5558,14.1041-4.0419,20.511-7.7693,2.0269-1.1791,2.9175-4.1,1.6078-6.1316Z"/><path class="cls-18" d="M1160.1383,460.0468c4.9093-.8954,10.13,.0333,14.4293,2.567,4.2993,2.5337,7.6409,6.6509,9.2359,11.3795,.7015,2.0799,1.0656,4.3864,.3235,6.4521"/><path class="cls-18" d="M1196.514,448.4607c8.0487,.5144,15.071,6.0239,19.6366,12.6722,3.9255,5.7162,6.4194,12.4075,7.1927,19.2985"/><path class="cls-18" d="M1185.5228,518.4266c25.2257-17.1771,56.2234-24.0501,82.0245-40.35,1.8168-1.1478,3.7353-2.5122,4.3203-4.58,.8203-2.8993-1.502-5.9357-4.3218-6.9975-2.8198-1.0617-5.9516-.6698-8.9371-.2632l-22.369,3.0467c12.5725-9.3912,25.2268-18.8556,35.8324-30.4221,2.7369-2.9849,5.3905-7.6062,2.8015-10.7203-2.7893-3.355-8.1792-1.0012-11.7365,1.5249-12.026,8.5396-23.1592,15.3842-35.1852,23.9238,8.9136-15.282,20.7703-28.5911,32.0277-42.2388,1.8212-2.2079,3.6934-4.5654,4.1684-7.3878s-1.0203-6.191-3.8288-6.7421c-2.6357-.5172-5.0264,1.5012-6.9666,3.3586-14.5295,13.9093-29.7416,27.1057-45.5632,39.5256l25.1757-34.5955c2.0091-2.7608,3.7613-7.2138,.8701-9.0303-.8592-.5398-1.9243-.6299-2.9385-.5967-7.4379,.2428-13.3566,6.035-18.467,11.4446-17.093,18.094-33.9981,34.635-51.0911,52.729,.2587-6.0247-.9924-11.9093-1.4611-17.9214-.3213-4.1211-.8404-8.3247-2.6765-12.0281s-5.2299-6.8663-9.3294-7.3965-8.768,1.8434-9.05,5.9674l-2.8367,41.4739"/></g><g><path class="cls-30" d="M1069.0029,585.5394c-94.4785,0-169.7394-78.9449-178.0506-87.9935l33.0028-30.3188,30.4939-27.4359c15.4833,16.6376,68.4345,56.7306,115.5255,56.1091,22.8261-.2801,43.3315-11.0378,62.6881-32.8879l67.0909,59.4385c-36.1736,40.8314-80.8575,62.6443-129.2221,63.082-.5055,.0044-1.0241,.0066-1.5285,.0066Z"/><path class="cls-31" d="M1047.0196,546.6042c-50.9252-4.2-105.0191-52.4728-127.7576-75.0657l-28.3097,26.0075c8.3111,9.0486,83.5721,87.9935,178.0506,87.9935,.5044,0,1.023-.0022,1.5285-.0066,48.3646-.4377,93.0485-22.2506,129.2221-63.082l-17.1773-15.2179c-30.9125,24.2884-84.3363,43.5956-135.5566,39.3712Z"/><path class="cls-14" d="M955.7223,439.7912c15.4833,16.6376,67.1612,56.7306,114.2522,56.1091,22.8261-.2801,43.3315-11.0378,62.6881-32.8879l67.0909,59.4385c-36.1736,40.8314-80.8575,62.6443-129.2221,63.082-.5055,.0044-1.0241,.0066-1.5285,.0066-94.4785,0-169.7394-78.9449-178.0506-87.9935"/></g><g><path class="cls-9" d="M951.4591,195.5991v129.1751c0,67.9819,4.6673,89.2068-14.6192,111.4425-19.2865,22.2357-20.1313,82.8784,0,95.007,0,0-109.5945,61.6535-114.9761-46.4928-5.3816-108.1463,52.8475-112.5701,52.8475-112.5701l12.0227-176.5616h64.7251Z"/><path class="cls-26" d="M924.8273,511.5907c-28.5207,6.0854-58.6057,5.1451-68.4564-21.1835-20.4332-54.6133,42.6434-99.0808,42.6434-99.0808l21.0089-195.7273h-33.2892l-12.0226,176.5617s-58.2291,4.4238-52.8476,112.5701c5.3817,108.1462,114.9761,46.4928,114.9761,46.4928-5.6241-3.3883-9.6076-10.5671-12.0126-19.633Z"/><path class="cls-2" d="M951.4591,195.5991v129.1751c0,67.9819,4.6673,89.2068-14.6192,111.4425-19.2865,22.2357-20.1313,82.8784,0,95.007,0,0-109.5945,61.6535-114.9761-46.4928-5.3816-108.1463,52.8475-112.5701,52.8475-112.5701l12.0227-176.5616h64.7251Z"/></g></g></svg>