<?xml version="1.0" encoding="UTF-8"?><svg id="Layer_2" xmlns="http://www.w3.org/2000/svg" viewBox="0 0 250.9346 250.9346"><defs><style>.cls-1,.cls-2,.cls-3,.cls-4,.cls-5{stroke-miterlimit:10;}.cls-1,.cls-2,.cls-4{stroke-width:3.5878px;}.cls-1,.cls-3{fill:#eec1a6;}.cls-1,.cls-3,.cls-5{stroke:#231f20;}.cls-6{fill:#0f086d;}.cls-2{fill:#2e17a0;}.cls-2,.cls-4{stroke:#0f086d;}.cls-3,.cls-5{stroke-linecap:round;stroke-width:2.8702px;}.cls-4{fill:#340ec1;}.cls-7{fill:#21201c;}.cls-8{fill:#9b8518;}.cls-5{fill:none;}</style></defs><g id="Layer_14"><circle class="cls-8" cx="125.4673" cy="125.4673" r="125.4673"/><path class="cls-6" d="M171.0197,186.0892H94.0651c-22.9641,0-42.5853,14.2574-50.5326,34.3972,21.9828,18.9728,50.6181,30.4482,81.9348,30.4482,36.0583,0,68.5583-15.2162,91.4446-39.5714-9.6316-15.1857-26.5787-25.274-45.8923-25.274Z"/></g><g id="Layer_13"><rect class="cls-1" x="104.8873" y="154.606" width="42.0983" height="37.2994"/><path class="cls-2" d="M66.5957,80.7593v60.099c0,31.6287-2.1715,41.5037,6.8016,51.8489,8.9731,10.3452,9.3661,38.5594,0,44.2022,0,0,50.9891,28.6844,53.4929-21.6309s-24.5874-52.3735-24.5874-52.3735l-5.5936-82.1457h-30.1135Z"/><path class="cls-2" d="M185.9253,80.7593v60.099c0,31.6287,2.1715,41.5037-6.8016,51.8489-8.9731,10.3452-9.3661,38.5594,0,44.2022,0,0-50.9891,28.6844-53.4929-21.6309s24.5874-52.3735,24.5874-52.3735l5.5936-82.1457h30.1135Z"/><path class="cls-1" d="M126.8903,168.8809h0c-29.5433,0-53.4929-23.9496-53.4929-53.4929v-22.9256c0-27.3089,22.1383-49.4472,49.4472-49.4472h8.0914c27.3089,0,49.4472,22.1383,49.4472,49.4472v22.9256c0,29.5433-23.9496,53.4929-53.4929,53.4929Z"/><path class="cls-7" d="M107.8604,92.6294h-5.9463c-2.1808,0-3.9487,1.7679-3.9487,3.9487s1.7679,3.9487,3.9487,3.9487h5.9463c2.1808,0,3.9487-1.7679,3.9487-3.9487s-1.7679-3.9487-3.9487-3.9487Z"/><path class="cls-7" d="M154.5843,92.6294h-5.9463c-2.1808,0-3.9487,1.7679-3.9487,3.9487s1.7679,3.9487,3.9487,3.9487h5.9463c2.1808,0,3.9487-1.7679,3.9487-3.9487s-1.7679-3.9487-3.9487-3.9487Z"/><path class="cls-3" d="M117.7358,120.7606c0-5.9158,4.7957-10.7114,10.7114-10.7114s10.7114,4.7957,10.7114,10.7114"/><path class="cls-5" d="M148.9068,129.7067c0,10.08-9.16,18.2515-20.4595,18.2515s-20.4595-8.1715-20.4595-18.2515"/><path class="cls-4" d="M102.7393,37.387h47.2735c19.9482,0,36.1435,16.1954,36.1435,36.1435v7.2287H66.5957v-7.2287c0-19.9482,16.1954-36.1435,36.1435-36.1435Z"/></g></svg>