<?xml version="1.0" encoding="UTF-8"?><svg id="Layer_2" xmlns="http://www.w3.org/2000/svg" viewBox="0 0 253.179 253.179"><defs><style>.cls-1,.cls-2,.cls-3,.cls-4,.cls-5{stroke-width:3.6198px;}.cls-1,.cls-2,.cls-3,.cls-5,.cls-6{stroke-miterlimit:10;}.cls-1,.cls-2,.cls-3,.cls-6{stroke:#231f20;}.cls-1,.cls-4,.cls-5{fill:none;}.cls-1,.cls-6{stroke-linecap:round;}.cls-7{fill:#0f086d;}.cls-2,.cls-8{fill:#9e4c0e;}.cls-9{fill:#c86;}.cls-3,.cls-6{fill:#eec1a6;}.cls-10{fill:#e8bc31;}.cls-11{fill:#592a0a;}.cls-12{fill:#21201c;}.cls-4{stroke-linejoin:round;}.cls-4,.cls-5{stroke:#19183a;}.cls-6{stroke-width:5.7918px;}</style></defs><g id="Layer_12"><circle class="cls-7" cx="126.5895" cy="126.5895" r="126.5895"/></g><g id="Layer_11"><g><path class="cls-11" d="M81.8231,80.3015c-2.6084-1.536-5.9278-1.2175-8.7986-.2572-9.6157,3.2165-16.2433,13.67-15.0508,23.739-5.4737-2.2241-11.9212,1.8225-14.2541,7.2507-2.3329,5.4282-1.5701,11.6545-.3297,17.4311-3.9231,.6198-7.5429,2.4559-10.5163,5.0615,1.4791,.4584,3.0573,.5734,4.5765,.24,.0925,4.617-3.157,8.7602-3.2908,13.3762-.1045,3.6041,1.8853,7.1943,4.997,9.0159,3.1117,1.8215,7.2164,1.7991,10.3079-.0565,.0471,5.3703,3.6488,10.5361,8.6715,12.4373,5.0228,1.9012,11.1423,.415,14.7335-3.5781,4.5514,4.7455,12.4573,5.8218,18.1117,2.4658l1.7332-102.0549c-1.9769,.6983-3.8493,1.6471-5.5023,2.9408-3.6137,2.8282-6.0315,7.445-5.3888,11.9886Z"/><path class="cls-8" d="M72.2905,46.4093c-5.0833-.8133-10.655,.2385-14.4627,3.703-3.8077,3.4645-5.3209,9.5677-2.7286,14.0153-5.5641-3.33-13.5807-.7005-16.686,4.9921-3.1052,5.6926-1.3885,13.3503,3.391,17.7327-5.6176-.4056-11.2332,3.6443-12.6219,9.1026s1.6089,11.6995,6.7373,14.0277c-2.9497,2.1001-5.8035,4.4695-7.7088,7.5486-1.9053,3.0791-2.75,6.9899-1.488,10.3837,1.0063,2.7061,3.405,4.7604,6.1507,5.6114,2.9734-2.6056,6.5932-4.4417,10.5163-5.0615-1.2404-5.7766-2.0032-12.0029,.3297-17.4311,2.3329-5.4282,8.7804-9.4748,14.2541-7.2507-1.1925-10.069,5.4351-20.5225,15.0508-23.739,2.8707-.9603,6.1901-1.2788,8.7986,.2572-.6427-4.5435,1.7751-9.1603,5.3888-11.9886,1.653-1.2937,3.5254-2.2424,5.5023-2.9408l.322-18.9629h-20.7457Z"/><path class="cls-4" d="M90.9809,167.4271c-5.6543,3.356-13.5603,2.2796-18.1117-2.4659-3.5913,3.9932-9.7108,5.4793-14.7336,3.5782-5.0227-1.9012-8.6244-7.067-8.6715-12.4373-3.0915,1.8556-7.1962,1.8781-10.3079,.0565s-5.1015-5.4117-4.997-9.0159c.1339-4.616,3.3833-8.7592,3.2908-13.3762-4.3392,.9524-9.1787-1.6875-10.7271-5.8514-1.262-3.3938-.4173-7.3046,1.488-10.3837,1.9053-3.0791,4.7591-5.4485,7.7088-7.5486-5.1284-2.3283-8.126-8.5694-6.7373-14.0277,1.3886-5.4583,7.0043-9.5082,12.6219-9.1026-4.7794-4.3824-6.4962-12.0401-3.391-17.7327,3.1052-5.6926,11.1218-8.3221,16.686-4.9921-2.5923-4.4476-1.0791-10.5508,2.7286-14.0153s9.3794-4.5163,14.4628-3.7031h20.7457l-2.0553,121.0178Z"/></g><g><path class="cls-11" d="M181.2336,80.3015c2.6084-1.536,5.9278-1.2175,8.7986-.2572,9.6157,3.2165,16.2433,13.67,15.0508,23.739,5.4737-2.2241,11.9212,1.8225,14.2541,7.2507,2.3329,5.4282,1.5701,11.6545,.3297,17.4311,3.9231,.6198,7.5429,2.4559,10.5163,5.0615-1.4791,.4584-3.0573,.5734-4.5765,.24-.0925,4.617,3.157,8.7602,3.2908,13.3762,.1045,3.6041-1.8853,7.1943-4.997,9.0159-3.1117,1.8215-7.2164,1.7991-10.3079-.0565-.0471,5.3703-3.6488,10.5361-8.6715,12.4373-5.0228,1.9012-11.1423,.415-14.7335-3.5781-4.5514,4.7455-12.4573,5.8218-18.1117,2.4658l-1.7332-102.0549c1.9769,.6983,3.8493,1.6471,5.5023,2.9408,3.6137,2.8282,6.0315,7.445,5.3888,11.9886Z"/><path class="cls-8" d="M190.7662,46.4093c5.0833-.8133,10.655,.2385,14.4627,3.703,3.8077,3.4645,5.3209,9.5677,2.7286,14.0153,5.5641-3.33,13.5807-.7005,16.686,4.9921s1.3885,13.3503-3.391,17.7327c5.6176-.4056,11.2332,3.6443,12.6219,9.1026,1.3886,5.4583-1.6089,11.6995-6.7373,14.0277,2.9497,2.1001,5.8035,4.4695,7.7088,7.5486s2.75,6.9899,1.488,10.3837c-1.0063,2.7061-3.405,4.7604-6.1507,5.6114-2.9734-2.6056-6.5932-4.4417-10.5163-5.0615,1.2404-5.7766,2.0032-12.0029-.3297-17.4311-2.3329-5.4282-8.7804-9.4748-14.2541-7.2507,1.1925-10.069-5.4351-20.5225-15.0508-23.739-2.8707-.9603-6.1901-1.2788-8.7986,.2572,.6427-4.5435-1.7751-9.1603-5.3888-11.9886-1.653-1.2937-3.5254-2.2424-5.5023-2.9408l-.322-18.9629h20.7457Z"/><path class="cls-4" d="M172.0758,167.4271c5.6543,3.356,13.5603,2.2796,18.1117-2.4659,3.5913,3.9932,9.7108,5.4793,14.7336,3.5782,5.0227-1.9012,8.6244-7.067,8.6715-12.4373,3.0915,1.8556,7.1962,1.8781,10.3079,.0565s5.1015-5.4117,4.997-9.0159c-.1339-4.616-3.3833-8.7592-3.2908-13.3762,4.3392,.9524,9.1787-1.6875,10.7271-5.8514,1.262-3.3938,.4173-7.3046-1.488-10.3837-1.9053-3.0791-4.7591-5.4485-7.7088-7.5486,5.1284-2.3283,8.126-8.5694,6.7373-14.0277-1.3886-5.4583-7.0043-9.5082-12.6219-9.1026,4.7794-4.3824,6.4962-12.0401,3.391-17.7327-3.1052-5.6926-11.1218-8.3221-16.686-4.9921,2.5923-4.4476,1.0791-10.5508-2.7286-14.0153s-9.3794-4.5163-14.4628-3.7031h-20.7457l2.0553,121.0178Z"/></g><rect class="cls-3" x="108.4956" y="180.5139" width="44.0657" height="44.0657"/><path class="cls-3" d="M145.3769,42.3694h-29.697c-20.1716,0-36.5239,16.3524-36.5239,36.524v65.8797c0,28.3722,23.0002,45.3989,51.3725,45.3989s51.3725-17.0267,51.3725-45.3989V78.8934c0-20.1716-16.3524-36.524-36.524-36.524Z"/><g><path class="cls-11" d="M100.5235,87.5958v18.5798c2.0626-.4033,3.999-1.4756,5.3458-3.0926,1.8222-2.1877,2.5275-5.081,3.9625-7.5401,2.5836-4.4275,7.4091-7.1678,12.3787-8.4246,4.9696-1.2569,10.1596-1.2208,15.285-1.3114,9.7819-.1728,19.5552-.8346,29.2712-1.982,2.6459-.3125,5.3377-.6752,7.7465-1.8137,2.4088-1.1385,7.7389-3.1908,8.299-5.7956v-22.1389c-15.1002,7.4872-42.5311,9.7876-56.2227,9.7876-18.161,0-26.066,9.978-26.066,23.7315Z"/><path class="cls-8" d="M163.7352,35.5186h-57.5948c-22.5371,0-35.5402,9.3904-35.5402,28.1713v36.0209c-.4883,2.5951-.2338,5.3706,.9826,7.7144,1.2164,2.3438,3.4468,4.2026,6.0385,4.7091,3.5562,.6949,7.2871-1.2673,9.3582-4.2405,2.0712-2.9732,2.9147-6.8084,2.6666-10.4234,.1049,3.6977,2.6765,7.2023,6.1723,8.4117,1.507,.5214,3.1421,.599,4.705,.2934v-18.5798c0-13.7535,7.905-23.7315,26.066-23.7315,13.6916,0,41.1225-2.3004,56.2227-9.7876v-2.5943c0-4.6952-2.8003-15.9637-19.077-15.9637Z"/><path class="cls-5" d="M182.8122,76.2156c-.5601,2.6048-5.8902,4.6571-8.299,5.7956s-5.1006,1.5012-7.7465,1.8137c-9.7159,1.1475-19.4892,1.8093-29.2712,1.9821-5.1254,.0905-10.3153,.0544-15.285,1.3113-4.9697,1.2569-9.7951,3.9972-12.3787,8.4246-1.435,2.4591-2.1403,5.3524-3.9625,7.5401-2.3674,2.8423-6.555,4.0085-10.0508,2.7991s-6.0675-4.7141-6.1724-8.4117c.2481,3.6149-.5954,7.4502-2.6665,10.4233-2.0712,2.9731-5.8021,4.9354-9.3582,4.2405-2.5916-.5065-4.8221-2.3652-6.0385-4.7091s-1.4709-5.1192-.9826-7.7143V63.6899c0-18.7809,13.0032-28.1714,35.5402-28.1714h57.5948c16.2768,0,19.077,11.2685,19.077,15.9638v24.7333Z"/></g><path class="cls-3" d="M183.5761,126.2466s4.7718-7.3833,10.6169-5.3837c5.8451,1.9996,5.8417,31.9898-10.6169,17.8384v-12.4548Z"/><path class="cls-3" d="M77.4498,126.2466s-4.7718-7.3833-10.6169-5.3837c-5.8451,1.9996-5.8417,31.9898,10.6169,17.8384v-12.4548Z"/><path class="cls-1" d="M142.6822,158.2157c0,7.6829-6.2282,13.9111-13.9111,13.9111s-13.9111-6.2282-13.9111-13.9111"/><path class="cls-9" d="M129.9391,146.4254c7.5733,0,13.7128-2.3817,13.7128-5.3196h-27.4257c0,2.938,6.1395,5.3196,13.7129,5.3196Z"/><rect class="cls-12" x="99.1646" y="115.2628" width="7.9681" height="10.5134" rx="3.984" ry="3.984"/><rect class="cls-12" x="148.5949" y="115.2628" width="7.9681" height="10.5134" rx="3.984" ry="3.984"/><path class="cls-6" d="M143.6519,109.5509s7.3705-5.1558,17.8539,0"/><path class="cls-6" d="M94.2217,109.5509s7.3705-5.1558,17.8539,0"/><path class="cls-10" d="M179.1069,214.1062H81.9499c-12.0417,0-21.8524,8.0682-22.3129,19.9275,19.4227,12.1288,42.3665,19.1453,66.9525,19.1453,27.9659,0,53.8084-9.0755,74.758-24.4323-1.0164-7.1722-10.5828-14.6405-22.2406-14.6405Z"/><path class="cls-2" d="M128.7711,178.6789c-7.7306,.2031-15.5659,2.8562-15.5659,9.2025s1.9493,10.8287,8.533,8.7276c0,0-.0016,6.7238,8.7541,6.7238s8.3354-6.8638,8.3354-6.8638c0,0,5.0445,6.168,8.965-1.821,3.9205-7.989-3.0237-16.3891-19.0216-15.9689Z"/></g></svg>