<?xml version="1.0" encoding="UTF-8"?><svg id="Layer_2" xmlns="http://www.w3.org/2000/svg" viewBox="0 0 365.3776 547.5338"><defs><style>.cls-1{fill:#2e17a0;}.cls-1,.cls-2{stroke:#0f086d;}.cls-1,.cls-2,.cls-3,.cls-4,.cls-5,.cls-6,.cls-7,.cls-8{stroke-miterlimit:10;}.cls-1,.cls-2,.cls-6{stroke-width:7.9874px;}.cls-2{fill:#340ec1;}.cls-3,.cls-9,.cls-4,.cls-5,.cls-6,.cls-7,.cls-8{stroke:#231f20;}.cls-3,.cls-9,.cls-5,.cls-7,.cls-8{stroke-linecap:round;}.cls-3,.cls-9,.cls-7,.cls-8{fill:none;}.cls-3,.cls-5{stroke-width:6.3899px;}.cls-10{fill:#dba489;}.cls-9{stroke-linejoin:round;}.cls-9,.cls-4{stroke-width:4.7924px;}.cls-4{fill:#d3d3d3;}.cls-5,.cls-6,.cls-11{fill:#eec1a6;}.cls-12{fill:#21201c;}.cls-13{fill:#4f2459;}.cls-14{fill:#3e1b47;}.cls-7{stroke-width:6.2268px;}.cls-8{stroke-width:6.7224px;}</style></defs><g id="Layer_26"><g><path class="cls-13" d="M159.7594,306.5931h61.3102c77.7906,0,140.9468,63.1561,140.9468,140.9468v62.5988H18.8127v-62.5988c0-77.7906,63.1561-140.9468,140.9468-140.9468Z"/><path class="cls-14" d="M217.7006,306.5931h-57.9412c-77.8428,0-140.9468,63.104-140.9468,140.9467v62.5988H217.7006v-203.5455Z"/><path class="cls-8" d="M159.7594,306.5931h61.3102c77.7906,0,140.9468,63.1561,140.9468,140.9468v62.5988H18.8127v-62.5988c0-77.7906,63.1561-140.9468,140.9468-140.9468Z"/></g><g id="Layer_25"><path class="cls-1" d="M331.2879,100.553V234.3509c0,70.4148,4.8343,92.3993-15.1424,115.4308-19.9767,23.0314-20.8517,85.8444,0,98.4071,0,0-113.5166,63.8599-119.0908-48.1566-5.5742-112.0165,54.7388-116.5987,54.7388-116.5987l12.453-182.8803h67.0414Z"/><path class="cls-6" d="M199.8587,296.7375h0c-65.772,0-119.0908-53.3187-119.0908-119.0907v-51.0391c0-60.7977,49.2863-110.084,110.084-110.084h18.0137c60.7977,0,110.084,49.2863,110.084,110.084v51.0391c0,65.772-53.3189,119.0907-119.0908,119.0907Z"/><path class="cls-12" d="M186.1458,118.7021h-13.2383c-4.8551,0-8.791,3.9359-8.791,8.791s3.9359,8.791,8.791,8.791h13.2383c4.8551,0,8.791-3.9359,8.791-8.791s-3.9359-8.791-8.791-8.791Z"/><path class="cls-12" d="M290.1667,118.7021h-13.2383c-4.8551,0-8.791,3.9359-8.791,8.791s3.9359,8.791,8.791,8.791h13.2383c4.8551,0,8.791-3.9359,8.791-8.791s-3.9359-8.791-8.791-8.791Z"/><path class="cls-5" d="M217.7006,179.0457c0-13.1702,10.6766-23.8468,23.8468-23.8468s23.8468,10.6766,23.8468,23.8468"/><rect class="cls-4" x="283.7205" y="240.2409" width="7.5727" height="15.1454"/><path class="cls-2" d="M146.0915,3.9937h105.2445c44.4104,0,80.4661,36.0556,80.4661,80.4661v16.0932H65.6255v-16.0932C65.6255,40.0493,101.6811,3.9937,146.0915,3.9937Z"/><path class="cls-3" d="M178.1571,203.7773s34.5478,47.0828,99.9745,17.121"/><path class="cls-1" d="M65.6255,100.553V234.3509c0,70.4148-4.8343,92.3993,15.1424,115.4308,19.9767,23.0314,20.8517,85.8444,0,98.4071,0,0,113.5166,63.8599,119.0908-48.1566,5.5742-112.0165-54.7388-116.5987-54.7388-116.5987l-12.453-182.8803H65.6255Z"/></g><g id="Layer_27"><path class="cls-14" d="M28.9742,389.4734H104.8581v128.1621c0,17.2685-14.0199,31.2884-31.2884,31.2884h-13.3071c-17.2685,0-31.2884-14.0199-31.2884-31.2884v-128.1621h0Z" transform="translate(272.7542 42.2843) rotate(33.8579)"/><path class="cls-7" d="M28.9742,389.4734H104.8581v128.1621c0,17.2685-14.0199,31.2884-31.2884,31.2884h-13.3071c-17.2685,0-31.2884-14.0199-31.2884-31.2884v-128.1621h0Z" transform="translate(272.7542 42.2843) rotate(33.8579)"/></g><g><path class="cls-11" d="M81.2326,385.1541c-6.737-21.1774-12.0607-42.8044-15.9237-64.6892-.886-5.0191-1.6903-10.2176-.471-15.1663s4.9754-9.6241,10.0212-10.3426c4.6855-.6672,9.3029,2.2328,12.0388,6.0947s3.9636,8.561,5.1393,13.1454c2.6351,10.2741,5.2701,20.5483,7.9052,30.8224,13.7752-24.495,27.7712-49.3245,41.5465-73.8195,2.9895-5.3159,6.2146-10.8773,11.4814-13.9525s13.1956-2.4786,16.1685,2.8466c2.6626,4.7694,.346,10.673-1.9819,15.6144-6.9072,14.662-13.8144,29.324-20.7216,43.986,6.8974-2.0625,18.1263-3.0658,22.1392,2.9112,1.2874,1.9175,1.7422,4.2856,1.7958,6.5946,.0865,3.7295-.8158,7.4775-2.5902,10.759,4.6064,.0891,9.2322-2.9205,13.5849-1.4104,3.3998,1.1796,5.3932,4.8928,5.6464,8.4825s-.8878,7.1148-2.0144,10.5325c3.9954-2.8013,9.9886-1.3523,13.0959,2.41s3.638,9.1663,2.4164,13.8905c-1.2216,4.7242-3.979,8.8958-6.9236,12.7868-9.4604,12.501-37.4576,30.3981-50.9373,38.4026l-61.4158-39.8989Z"/><path class="cls-10" d="M167.7185,400.6574c2.2405-4.13-.5535-9.6055-4.7722-11.6735-4.219-2.0681-9.2393-1.5322-13.7927-.3738,.4281-6.6765,.1467-13.3982-.8376-20.0156-.345-2.3187-.8223-4.7302-2.2881-6.5594-2.3275-2.9047-6.6406-3.5549-10.2241-2.5491-3.5837,1.0059-6.6166,3.3494-9.5496,5.6412,3.4823-10.6353,6.8927-22.6021,1.9104-32.6226-4.9927,1.0823-8.6599,5.2271-11.8584,9.2104-7.4109,9.2294-14.3218,18.8604-20.692,28.8365-11.1492-23.392-18.257-48.6932-20.9999-74.4592-3.9736,1.5284-6.8755,5.5521-7.9182,9.7843-1.2194,4.9487-.415,10.1472,.4709,15.1663,3.863,21.8849,9.1868,43.5118,15.9238,64.6892l60.526,39.3209c9.1764-5.489,24.1346-14.9919,35.8582-24.3375-3.7821-1.2699-7.9752-1.3447-11.7565-.058Z"/><path class="cls-9" d="M81.2326,385.1541c-6.737-21.1774-12.0607-42.8044-15.9237-64.6892-.886-5.0191-1.6903-10.2176-.471-15.1663s4.9754-9.6241,10.0212-10.3426c4.6855-.6672,9.3029,2.2328,12.0388,6.0947s3.9636,8.561,5.1393,13.1454c2.6351,10.2741,5.2701,20.5483,7.9052,30.8224,13.7752-24.495,27.7712-49.3245,41.5465-73.8195,2.9895-5.3159,6.2146-10.8773,11.4814-13.9525s13.1956-2.4786,16.1685,2.8466c2.6626,4.7694,.346,10.673-1.9819,15.6144-6.9072,14.662-13.8144,29.324-20.7216,43.986,6.8974-2.0625,18.1263-3.0658,22.1392,2.9112,1.2874,1.9175,1.7422,4.2856,1.7958,6.5946,.0865,3.7295-.8158,7.4775-2.5902,10.759,4.6064,.0891,9.2322-2.9205,13.5849-1.4104,3.3998,1.1796,5.3932,4.8928,5.6464,8.4825s-.8878,7.1148-2.0144,10.5325c3.9954-2.8013,9.9886-1.3523,13.0959,2.41s3.638,9.1663,2.4164,13.8905c-1.2216,4.7242-3.979,8.8958-6.9236,12.7868-9.4604,12.501-37.4576,30.3981-50.9373,38.4026l-61.4158-39.8989Z"/></g></g></svg>